<?xml version="1.0" encoding="UTF-8"?>
<svg width="417px" height="107px" viewBox="0 0 417 107" version="1.1" xmlns="http://www.w3.org/2000/svg" xmlns:xlink="http://www.w3.org/1999/xlink">
    <!-- Generator: Sketch 52.3 (67297) - http://www.bohemiancoding.com/sketch -->
    <title>Logo</title>
    <desc>Created with Sketch.</desc>
    <g id="Joblift-–-Brand" stroke="none" stroke-width="1" fill="none" fill-rule="evenodd">
        <g id="Logo-–-Dark-New" transform="translate(-512.000000, -458.000000)">
            <g id="Logo" transform="translate(512.000000, 458.000000)">
                <path d="M60.2086089,74.7543801 C60.2086089,79.2476222 59.5484268,83.4545296 58.2280626,87.3751043 C56.9076984,91.295679 54.9491588,94.7096613 52.3524418,97.6170532 C49.7557248,100.524445 46.5868506,102.815117 42.8458193,104.489071 C39.104788,106.163024 34.8136042,107 29.972268,107 C25.2189568,107 20.9717845,106.163024 17.2307532,104.489071 C13.4897219,102.815117 10.3428525,100.502419 7.79014896,97.5509761 C5.23744546,94.5995335 3.30091058,91.1635248 1.98054635,87.2429501 C0.660182116,83.3223754 0,79.115468 0,74.6222259 L15.1841887,74.6222259 C15.1841887,80.1727015 16.3945232,84.68797 18.8151903,88.1680294 C21.2358574,91.6480888 24.954884,93.3881195 29.972268,93.3881195 C34.9896521,93.3881195 38.7526902,91.6701151 41.2613822,88.2341065 C43.7700743,84.7980978 45.0244203,80.3048557 45.0244203,74.7543801 L45.0244203,12.245453 L60.2086089,12.245453 L60.2086089,74.7543801 Z M99.9682439,106.339229 C95.0388848,106.339229 90.5936578,105.480227 86.6325651,103.762223 C82.6714725,102.044218 79.2825369,99.6874694 76.4657606,96.691974 C73.6489842,93.6964786 71.4703832,90.2604699 69.9299576,86.3839479 C68.389532,82.507426 67.6193202,78.3665937 67.6193202,73.961455 C67.6193202,69.6444178 68.389532,65.5256139 69.9299576,61.6050392 C71.4703832,57.6844645 73.6489842,54.2264315 76.4657606,51.2309361 C79.2825369,48.2354407 82.6714725,45.8786918 86.6325651,44.1606875 C90.5936578,42.4426831 95.0388848,41.583681 99.9682439,41.583681 C104.897603,41.583681 109.364837,42.4426831 113.369941,44.1606875 C117.375045,45.8786918 120.807992,48.2354407 123.668782,51.2309361 C126.529572,54.2264315 128.730177,57.6844645 130.270603,61.6050392 C131.811029,65.5256139 132.58124,69.6444178 132.58124,73.961455 C132.58124,78.3665937 131.811029,82.507426 130.270603,86.3839479 C128.730177,90.2604699 126.529572,93.6964786 123.668782,96.691974 C120.807992,99.6874694 117.375045,102.044218 113.369941,103.762223 C109.364837,105.480227 104.897603,106.339229 99.9682439,106.339229 Z M99.9682439,93.5202737 C102.696997,93.5202737 105.183683,92.9916569 107.428302,91.9344235 C109.672921,90.8771901 111.587449,89.4675448 113.171886,87.7054897 C114.756323,85.9434347 115.988663,83.8730185 116.868906,81.4942433 C117.74915,79.115468 118.18927,76.6045386 118.18927,73.961455 C118.18927,71.3183714 117.74915,68.807442 116.868906,66.4286668 C115.988663,64.0498915 114.756323,61.9794754 113.171886,60.2174203 C111.587449,58.4553653 109.672921,57.04572 107.428302,55.9884866 C105.183683,54.9312531 102.696997,54.4026364 99.9682439,54.4026364 C97.2394905,54.4026364 94.7748119,54.9312531 92.5742042,55.9884866 C90.3735965,57.04572 88.4810751,58.4553653 86.896638,60.2174203 C85.3122009,61.9794754 84.1018664,64.0498915 83.2656364,66.4286668 C82.4294064,68.807442 82.0112903,71.3183714 82.0112903,73.961455 C82.0112903,76.6045386 82.4294064,79.115468 83.2656364,81.4942433 C84.1018664,83.8730185 85.3122009,85.9434347 86.896638,87.7054897 C88.4810751,89.4675448 90.3735965,90.8771901 92.5742042,91.9344235 C94.7748119,92.9916569 97.2394905,93.5202737 99.9682439,93.5202737 Z M155.044104,104.753379 L140.652134,104.753379 L140.652134,12.245453 L155.044104,12.245453 L155.044104,51.4952445 C156.980639,48.4116476 159.731397,45.9888196 163.29638,44.2267646 C166.861364,42.4647095 170.448354,41.583681 174.057349,41.583681 C178.722635,41.583681 182.991814,42.4426831 186.864882,44.1606875 C190.73795,45.8786918 194.060867,48.2354407 196.833632,51.2309361 C199.606397,54.2264315 201.762991,57.6844645 203.303417,61.6050392 C204.843842,65.5256139 205.614054,69.6444178 205.614054,73.961455 C205.614054,78.3665937 204.843842,82.507426 203.303417,86.3839479 C201.762991,90.2604699 199.606397,93.6964786 196.833632,96.691974 C194.060867,99.6874694 190.73795,102.044218 186.864882,103.762223 C182.991814,105.480227 178.722635,106.339229 174.057349,106.339229 C170.448354,106.339229 166.861364,105.458201 163.29638,103.696146 C159.731397,101.93409 156.980639,99.5112625 155.044104,96.4276656 L155.044104,104.753379 Z M173.26513,93.5202737 C175.993884,93.5202737 178.458562,92.9916569 180.65917,91.9344235 C182.859778,90.8771901 184.752299,89.4675448 186.336736,87.7054897 C187.921173,85.9434347 189.131508,83.8730185 189.967738,81.4942433 C190.803968,79.115468 191.222084,76.6045386 191.222084,73.961455 C191.222084,71.3183714 190.803968,68.807442 189.967738,66.4286668 C189.131508,64.0498915 187.921173,61.9794754 186.336736,60.2174203 C184.752299,58.4553653 182.859778,57.04572 180.65917,55.9884866 C178.458562,54.9312531 175.993884,54.4026364 173.26513,54.4026364 C170.448354,54.4026364 167.917655,54.9312531 165.673036,55.9884866 C163.428417,57.04572 161.513889,58.4553653 159.929452,60.2174203 C158.345014,61.9794754 157.13468,64.0498915 156.29845,66.4286668 C155.46222,68.807442 155.044104,71.3183714 155.044104,73.961455 C155.044104,76.6045386 155.46222,79.115468 156.29845,81.4942433 C157.13468,83.8730185 158.345014,85.9434347 159.929452,87.7054897 C161.513889,89.4675448 163.428417,90.8771901 165.673036,91.9344235 C167.917655,92.9916569 170.448354,93.5202737 173.26513,93.5202737 Z M212.948744,12.245453 L227.340714,12.245453 L227.340714,104.753379 L212.948744,104.753379 L212.948744,12.245453 Z M242.033434,43.1695311 L256.425405,43.1695311 L256.425405,104.753379 L242.033434,104.753379 L242.033434,43.1695311 Z M239.600763,20.6971021 C239.600763,17.9835091 240.537713,15.6889286 242.411613,13.8133568 C244.285514,11.937785 246.53818,11 249.169614,11 C251.880789,11 254.173325,11.937785 256.047226,13.8133568 C257.921126,15.6889286 258.858076,17.9835091 258.858076,20.6971021 C258.858076,23.3308829 257.921126,25.5855583 256.047226,27.4611301 C254.173325,29.3367019 251.880789,30.2744869 249.169614,30.2744869 C246.53818,30.2744869 244.285514,29.3367019 242.411613,27.4611301 C240.537713,25.5855583 239.600763,23.3308829 239.600763,20.6971021 Z M307.164068,43.1695311 L317.36755,43.1695311 L317.36755,24.5357918 L331.75952,24.5357918 L331.75952,43.1695311 L345.887417,43.1695311 L345.887417,55.1955615 L331.75952,55.1955615 L331.75952,80.569164 C331.75952,83.2122476 331.957575,85.3267145 332.353684,86.9125647 C332.749793,88.4984148 333.343957,89.7098288 334.136176,90.5468046 C334.928394,91.3837804 335.874656,91.9344235 336.974959,92.1987319 C338.075262,92.4630402 339.329608,92.5951944 340.737997,92.5951944 C341.882313,92.5951944 343.202677,92.5511437 344.699089,92.4630402 C346.195502,92.3749368 347.295806,92.2427826 348,92.0665777 L348,104.753379 C346.855684,104.929584 345.31526,105.105791 343.378725,105.281996 C341.44219,105.458201 339.417632,105.546304 337.30505,105.546304 C335.544565,105.546304 333.520005,105.392123 331.231374,105.083764 C328.942744,104.775405 326.764143,103.916403 324.695571,102.506758 C322.627,101.097113 320.888522,98.938595 319.480133,96.0312031 C318.071743,93.1238111 317.36755,89.0710823 317.36755,83.8730185 L317.36755,55.1955615 L307.164068,55.1955615 L291.055625,55.1955615 L291.055625,104.753379 L276.663654,104.753379 L276.663654,55.1955615 L264.120194,55.1955615 L264.120194,43.1695311 L276.663654,43.1695311 L276.663654,35.5045887 C276.663654,29.6017013 277.47788,25.0423821 279.106328,21.8266311 C280.734777,18.61088 282.715323,16.2321048 285.047967,14.6903054 C287.380611,13.1485059 289.823285,12.2234267 292.375989,11.9150676 C294.928692,11.6067085 297.085289,11.4525279 298.845773,11.4525279 C300.694283,11.4525279 302.344739,11.6067085 303.797139,11.9150676 C305.24954,12.2234267 306.37185,12.5978648 307.164068,13.0383781 L307.164068,25.1965627 C306.195802,24.9322543 305.183522,24.7119967 304.12723,24.5357918 C303.070939,24.3595869 301.970636,24.2714834 300.82632,24.2714834 C299.682004,24.2714834 298.537689,24.3155341 297.393373,24.4036376 C296.249057,24.491741 295.214772,24.8441508 294.290517,25.460871 C293.366262,26.0775912 292.59605,27.0467212 291.979879,28.368263 C291.363709,29.6898048 291.055625,31.5399633 291.055625,33.9187385 L291.055625,43.1695311 L307.164068,43.1695311 Z" id="Joblift" fill="#FFFFFF"></path>
                <path d="M374.56124,57.6121932 C370.902446,56.020322 367.772555,53.8366109 365.171008,51.061435 C362.569273,48.2855088 360.5566,45.101954 359.13411,41.5102079 C357.711059,37.9180866 357,34.0813506 357,29.9998124 C357,25.9996874 357.711059,22.1835861 359.13411,18.5509458 C360.5566,14.9183055 362.569273,11.714116 365.171008,8.93856495 C367.772555,6.16301391 370.902446,3.97967797 374.56124,2.3876192 C378.219473,0.795935595 382.325341,0 386.878283,0 C391.430664,0 395.557083,0.795935595 399.256045,2.3876192 C402.955753,3.97967797 406.125812,6.16301391 408.768274,8.93856495 C411.410923,11.714116 413.4434,14.9183055 414.86589,18.5509458 C416.288941,22.1835861 417,25.9996874 417,29.9998124 C417,34.0813506 416.288941,37.9180866 414.86589,41.5102079 C413.4434,45.101954 411.410923,48.2855088 408.768274,51.061435 C406.125812,53.8366109 402.955753,56.020322 399.256045,57.6121932 C395.557083,59.2040644 391.430664,60 386.878283,60 C382.325341,60 378.219473,59.2040644 374.56124,57.6121932 Z M403,41.6949153 L387,13.220339 L371,41.6949153 L403,41.6949153 Z" id="Markl" fill="#FBDE68"></path>
            </g>
        </g>
    </g>
</svg>